<svg width="789" height="164" viewBox="0 0 789 164" fill="none" xmlns="http://www.w3.org/2000/svg">
<path d="M134.848 0.488647L89.899 0.488897V18.4685C89.899 49.1932 89.899 64.5554 99.4439 74.1003C106.614 81.2704 117.067 83.0543 134.848 83.4982V0.488647Z" fill="white"/>
<path d="M83.1565 0.488897L0 0.488647V83.6453H17.98C48.7045 83.6453 64.0667 83.6453 73.6117 74.1003C83.1565 64.5554 83.1565 49.1932 83.1565 18.4685V0.488897Z" fill="white"/>
<path d="M134.848 90.5347C117.067 90.9786 106.614 92.7626 99.4437 99.9326C92.2737 107.103 90.4897 117.555 90.0458 135.337H134.848V90.5347Z" fill="white"/>
<path d="M83.0095 135.337C82.5657 117.555 80.7817 107.103 73.6116 99.9326C64.0667 90.3876 48.7044 90.3876 17.98 90.3876H0V135.337H83.0095Z" fill="white"/>
<path d="M179.992 0.488647V134.543H264.195V107.403H213.861V72.9383H247.672V46.962H213.861V26.4649H264.195V0.488647H179.992Z" fill="white"/>
<path fill-rule="evenodd" clip-rule="evenodd" d="M789 134.458C787.155 132.187 786.218 127.134 786.218 119.269V66.7778C786.218 60.2766 784.458 54.8541 780.966 50.5392C777.474 46.1955 772.903 43.0726 767.254 41.1138C761.661 39.1266 755.614 38.1329 749.17 38.1329C743.18 38.1329 737.53 39.0415 732.25 40.8866C726.969 42.6753 722.512 45.5426 718.85 49.4603C716.266 52.214 714.336 55.4504 713.03 59.1978L741.959 68.8501C742.016 65.3584 742.413 62.9737 743.208 61.2419C744.741 57.9204 746.813 57.3242 748.744 57.3242C752.151 57.3242 753.542 58.6582 754.762 60.9011C755.784 62.7465 755.841 66.8062 755.841 68.339V74.6983C748.176 74.9255 740.596 76.0895 733.13 78.2188C725.692 80.3478 719.474 83.868 714.478 88.7794C709.481 93.6909 706.983 100.05 706.983 107.857C706.898 112.683 707.466 118.276 710.589 123.982C713.226 128.814 716.056 130.884 717.221 131.736L717.224 131.738C717.307 131.799 717.382 131.854 717.448 131.903L717.477 131.925L717.549 131.98L717.587 132.01L717.629 132.045C721.518 135.196 727.565 136.757 733.953 136.757C748.715 136.757 755.472 122.25 755.472 122.25H755.841V134.515L789 134.458ZM745.224 116.062C743.378 116.062 741.277 115.636 739.716 113.876C738.155 112.115 737.388 109.617 737.388 106.381C737.388 101.98 738.098 98.6023 739.489 96.2176C740.88 93.8329 742.867 92.2145 745.394 91.3059C747.949 90.3976 751.469 89.7165 755.898 89.2905V109.447C755.896 109.447 755.883 109.47 755.859 109.512C755.466 110.2 752.119 116.062 745.224 116.062Z" fill="white"/>
<path d="M671.099 114.245H705.791V134.486H637.316V118.73L674.818 60.5605H642.596V40.3189H705.961V58.3177L671.099 114.245Z" fill="white"/>
<path d="M299.682 0.488647H268.652V134.543H299.682V0.488647Z" fill="white"/>
<path d="M554.05 40.3755V134.515H584.398V65.6989C584.398 65.6989 584.654 65.0175 586.101 63.3424C587.663 61.5258 590.161 59.5101 593.937 59.5101C598.791 59.5101 601.205 62.3208 601.205 67.9418V134.515H631.553V59.3399C631.553 52.8954 629.736 47.7568 626.102 43.896C622.468 40.0634 617.614 38.1329 611.51 38.1329C600.211 38.1329 591.268 43.0726 584.71 52.9239H584.341V40.3755H554.05Z" fill="white"/>
<path fill-rule="evenodd" clip-rule="evenodd" d="M383.856 94.1735H333.266C332.897 111.179 338.717 115.693 343.458 116.317C348.682 116.999 352.088 115.522 353.877 112.967C355.552 110.554 356.46 107.602 356.46 103.372L382.295 111.917C382.295 111.917 380.137 116.885 377.468 120.86C374.8 124.806 370.74 128.439 365.289 131.761C359.867 135.083 353.139 136.757 345.048 136.757C338.092 136.757 331.96 135.452 326.623 132.868C321.314 130.256 316.886 126.622 313.365 121.967C309.873 117.339 307.262 112.059 305.558 106.182C303.855 100.249 303.003 93.9463 303.003 87.2749C303.003 80.5183 303.883 74.1872 305.615 68.2823C307.375 62.3208 310.015 57.097 313.536 52.5833C317.056 48.0691 321.428 44.5489 326.651 42.0224C331.903 39.4672 337.922 38.1898 344.65 38.1898C353.792 38.1898 361.315 40.5178 367.163 45.2021C373.068 49.8578 377.326 55.9615 379.938 63.4563C382.55 70.9227 383.856 79.0704 383.856 87.8426V94.1735ZM333.266 76.1747H355.864C355.75 70.298 354.956 65.6704 353.536 62.2923C352.145 58.9139 349.107 57.2106 344.452 57.2106C340.505 57.2106 337.638 59.0844 335.878 62.8034C334.146 66.4939 333.266 70.9509 333.266 76.1747Z" fill="white"/>
<path fill-rule="evenodd" clip-rule="evenodd" d="M473.367 32.6537C470.557 32.7106 467.491 33.392 464.141 34.6694C460.621 35.9754 457.498 37.6221 454.801 39.5808C452.359 41.3126 450.741 42.9874 449.889 44.5489C443.587 40.1201 434.644 37.5651 423.487 37.5651C417.838 37.5651 412.018 38.6155 406.028 40.7448C400.038 42.8171 395.013 46.1389 390.953 50.681C386.894 55.1949 384.878 60.7308 384.878 67.3455C384.878 72.7963 386.383 77.7077 389.392 82.0229C392.401 86.3096 396.801 89.7165 402.593 92.1863V92.6123C398.079 93.6624 393.877 95.8768 389.988 99.2267C386.099 102.577 384.14 106.381 384.14 110.668C384.14 113.052 384.594 116.345 386.95 119.412C389.165 122.336 392.657 124.578 397.54 126.168V126.537C392.543 127.389 388.313 129.206 384.85 131.96C381.755 134.401 379.654 137.666 379.654 143.117C379.654 150.895 382.493 155.977 393.452 159.554C401.117 162.081 410.371 162.734 423.573 162.734C432.913 162.734 441.117 161.626 448.186 159.384C455.283 157.169 460.763 153.848 464.652 149.448C468.541 145.019 470.5 139.653 470.5 133.322C470.5 129.717 470.301 127.048 469.109 123.642C467.264 118.304 463.687 114.614 458.349 112.371C450.344 108.964 440.209 107.829 428.001 107.261C421.273 106.949 416.39 106.523 413.409 105.785C410.428 105.046 408.952 102.946 408.952 100.902C408.952 99.1161 409.994 97.7966 412.051 95.1917L412.16 95.0536C416.844 96.0755 421.188 96.5582 425.162 96.5582C431.039 96.5582 436.859 95.5078 442.593 93.3785C448.356 91.221 453.097 88.0414 456.845 83.8113C460.592 79.5531 462.466 74.4996 462.466 68.6231C462.466 62.4059 461.188 57.6081 458.633 54.1445C462.466 55.3368 467.775 57.0685 473.367 58.9139V32.6537ZM423.487 129.916C437.029 130.796 444.41 131.789 444.41 136.786C444.41 139.625 442.735 141.442 439.187 142.719C429.506 146.239 413.296 144.252 408.526 142.237C404.41 140.505 403.643 138.716 403.643 135.395C403.643 132.102 407.561 128.468 407.561 128.468C415.226 129.291 419.882 129.689 423.487 129.916ZM431.72 78.2755C430.102 81.4267 427.348 83.0164 423.487 83.0164C419.91 83.0164 417.27 81.5403 415.624 78.5593C413.977 75.5502 413.154 72.0015 413.154 67.9418C413.154 63.4278 413.949 59.5101 415.51 56.2169C417.071 52.8672 419.74 51.1921 423.516 51.1921C427.15 51.1921 429.875 52.6967 431.607 55.7342C433.367 58.7721 434.219 62.3774 434.219 66.579C434.19 71.1781 433.367 75.0674 431.72 78.2755Z" fill="white"/>
<path fill-rule="evenodd" clip-rule="evenodd" d="M547.265 134.458L547.236 66.7778C547.236 60.2766 545.476 54.8541 541.984 50.5392C538.492 46.1955 533.922 43.0726 528.272 41.1138C522.68 39.1266 516.633 38.1329 510.188 38.1329C504.198 38.1329 498.549 39.0415 493.268 40.8866C487.988 42.6753 483.531 45.5426 479.869 49.4603C477.285 52.214 475.355 55.4504 474.049 59.1978L502.977 68.8501C503.034 65.3584 503.432 62.9737 504.227 61.2419C505.76 57.9204 507.832 57.3242 509.762 57.3242C513.169 57.3242 514.56 58.6582 515.781 60.9011C516.803 62.7465 516.86 66.8062 516.86 68.339V74.6983C509.195 74.9255 501.615 76.0895 494.148 78.2188C486.71 80.3478 480.493 83.868 475.497 88.7794C470.5 93.6909 468.002 100.05 468.002 107.857C467.917 112.683 468.485 118.276 471.607 123.982C474.245 128.814 477.075 130.884 478.24 131.736C478.326 131.799 478.402 131.855 478.47 131.905C478.54 131.958 478.6 132.005 478.648 132.045C482.537 135.196 488.584 136.757 494.972 136.757C509.734 136.757 516.491 122.25 516.491 122.25H516.86V134.515L547.265 134.458ZM506.242 116.062C504.397 116.062 502.296 115.636 500.735 113.876C499.173 112.115 498.407 109.617 498.407 106.381C498.407 101.98 499.117 98.6023 500.508 96.2176C501.899 93.8329 503.886 92.2145 506.413 91.3059C508.968 90.3976 512.488 89.7165 516.917 89.2905V109.447C516.915 109.447 516.907 109.46 516.893 109.486L516.878 109.512C516.485 110.2 513.138 116.062 506.242 116.062Z" fill="white"/>
</svg>
